<svg width="100" height="60" viewBox="0 0 100 60" fill="none" xmlns="http://www.w3.org/2000/svg">
<path fill-rule="evenodd" clip-rule="evenodd" d="M46 36C53.732 36 60 29.732 60 22C60 14.268 53.732 8 46 8C38.268 8 32 14.268 32 22C32 29.732 38.268 36 46 36ZM46 29C49.866 29 53 25.866 53 22C53 18.134 49.866 15 46 15C42.134 15 39 18.134 39 22C39 25.866 42.134 29 46 29Z" fill="#313131"/>
<path fill-rule="evenodd" clip-rule="evenodd" d="M75 36C82.732 36 89 29.732 89 22C89 14.268 82.732 8 75 8C67.268 8 61 14.268 61 22C61 29.732 67.268 36 75 36ZM75 29C78.866 29 82 25.866 82 22C82 18.134 78.866 15 75 15C71.134 15 68 18.134 68 22C68 25.866 71.134 29 75 29Z" fill="#313131"/>
<path d="M9.74125 15.328C8.20525 15.328 6.86125 14.7733 5.70925 13.664C4.55725 12.5547 3.98125 11.0613 3.98125 9.184V5.344H10.7013V6.24C10.7013 7.136 10.8506 7.66933 11.1493 7.84C11.4906 7.968 12.0666 8.032 12.8773 8.032H30.6053L15.1173 30.56L13.4533 28.704H30.4133V36H2.06125L17.9973 12.768L19.3413 15.328H9.74125Z" fill="#313131"/>
<path d="M1.65263 41.304H4.37263L6.88463 48.696L6.51663 48.536L8.70863 43.08L9.78063 46.264L6.38863 53.544L1.65263 41.304ZM7.55663 41.304H9.86063L12.7566 48.456L12.3406 48.392L14.5006 41.304L16.9966 41.304L12.4526 53.512L7.55663 41.304ZM22.6036 41.224C23.3396 41.224 23.9956 41.32 24.5716 41.512C25.1476 41.6933 25.6276 41.96 26.0116 42.312C26.4063 42.6533 26.705 43.0693 26.9076 43.56C27.1103 44.04 27.2116 44.584 27.2116 45.192C27.2116 45.672 27.137 46.152 26.9876 46.632C26.849 47.112 26.6143 47.5493 26.2836 47.944C25.9636 48.3387 25.537 48.6587 25.0036 48.904C24.4703 49.1387 23.809 49.256 23.0196 49.256H21.3556L21.3556 53L19.0356 53L19.0356 41.224H22.6036ZM23.0036 47.016C23.3556 47.016 23.649 46.9573 23.8836 46.84C24.1183 46.7227 24.2996 46.5733 24.4276 46.392C24.5663 46.2107 24.6623 46.024 24.7156 45.832C24.7796 45.6293 24.8116 45.4427 24.8116 45.272C24.8116 45.144 24.7903 44.984 24.7476 44.792C24.7156 44.5893 24.641 44.3867 24.5236 44.184C24.4063 43.9813 24.225 43.8107 23.9796 43.672C23.745 43.5333 23.425 43.464 23.0196 43.464H21.3556V47.016H23.0036ZM25.1796 48.456L28.0916 53H25.3876L22.4116 48.52L25.1796 48.456ZM28.8781 47.128C28.8781 46.3173 29.0328 45.5493 29.3421 44.824C29.6515 44.0987 30.0781 43.4587 30.6221 42.904C31.1768 42.3387 31.8168 41.896 32.5421 41.576C33.2675 41.256 34.0461 41.096 34.8781 41.096C35.6995 41.096 36.4728 41.256 37.1981 41.576C37.9235 41.896 38.5635 42.3387 39.1181 42.904C39.6835 43.4587 40.1208 44.0987 40.4301 44.824C40.7501 45.5493 40.9101 46.3173 40.9101 47.128C40.9101 47.96 40.7501 48.7387 40.4301 49.464C40.1208 50.1893 39.6835 50.8293 39.1181 51.384C38.5635 51.928 37.9235 52.3547 37.1981 52.664C36.4728 52.9733 35.6995 53.128 34.8781 53.128C34.0461 53.128 33.2675 52.9733 32.5421 52.664C31.8168 52.3547 31.1768 51.928 30.6221 51.384C30.0781 50.8293 29.6515 50.1893 29.3421 49.464C29.0328 48.7387 28.8781 47.96 28.8781 47.128ZM31.2781 47.128C31.2781 47.6507 31.3688 48.1413 31.5501 48.6C31.7421 49.048 32.0035 49.448 32.3341 49.8C32.6755 50.1413 33.0648 50.408 33.5021 50.6C33.9501 50.792 34.4355 50.888 34.9581 50.888C35.4595 50.888 35.9235 50.792 36.3501 50.6C36.7875 50.408 37.1661 50.1413 37.4861 49.8C37.8061 49.448 38.0568 49.048 38.2381 48.6C38.4195 48.1413 38.5101 47.6507 38.5101 47.128C38.5101 46.5947 38.4141 46.0987 38.2221 45.64C38.0408 45.1813 37.7848 44.7813 37.4541 44.44C37.1341 44.088 36.7555 43.816 36.3181 43.624C35.8808 43.432 35.4061 43.336 34.8941 43.336C34.3821 43.336 33.9075 43.432 33.4701 43.624C33.0328 43.816 32.6488 44.088 32.3181 44.44C31.9875 44.7813 31.7315 45.1813 31.5501 45.64C31.3688 46.0987 31.2781 46.5947 31.2781 47.128ZM52.0551 52.024C51.9271 52.1307 51.6871 52.2747 51.3351 52.456C50.9938 52.6373 50.5725 52.7973 50.0711 52.936C49.5698 53.0747 49.0151 53.1387 48.4071 53.128C47.4791 53.1067 46.6471 52.9413 45.9111 52.632C45.1858 52.312 44.5671 51.88 44.0551 51.336C43.5538 50.792 43.1698 50.168 42.9031 49.464C42.6365 48.76 42.5031 48.008 42.5031 47.208C42.5031 46.312 42.6365 45.4907 42.9031 44.744C43.1805 43.9973 43.5698 43.352 44.0711 42.808C44.5831 42.264 45.1911 41.8427 45.8951 41.544C46.5991 41.2453 47.3778 41.096 48.2311 41.096C49.0205 41.096 49.7191 41.2027 50.3271 41.416C50.9351 41.6293 51.4311 41.8587 51.8151 42.104L50.9031 44.296C50.6365 44.0933 50.2791 43.8853 49.8311 43.672C49.3938 43.448 48.8871 43.336 48.3111 43.336C47.8631 43.336 47.4311 43.432 47.0151 43.624C46.6098 43.8053 46.2471 44.0667 45.9271 44.408C45.6178 44.7493 45.3725 45.1493 45.1911 45.608C45.0098 46.056 44.9191 46.5467 44.9191 47.08C44.9191 47.6453 44.9991 48.1627 45.1591 48.632C45.3298 49.1013 45.5698 49.5067 45.8791 49.848C46.1885 50.1787 46.5565 50.4347 46.9831 50.616C47.4205 50.7973 47.9111 50.888 48.4551 50.888C49.0845 50.888 49.6231 50.7867 50.0711 50.584C50.5191 50.3813 50.8605 50.168 51.0951 49.944L52.0551 52.024ZM59.4354 45.096L59.9154 46.904L53.4194 48.92L52.9394 47.112L59.4354 45.096ZM54.3794 41.224H56.6994V50.76H62.2354V53H54.3794V41.224ZM63.2858 53L68.5978 40.76H68.7258L74.0378 53H71.3498L67.9578 44.392L69.6378 43.24L65.5738 53H63.2858ZM66.9178 48.744H70.4538L71.2698 50.696H66.1978L66.9178 48.744ZM72.9964 41.304H75.7164L78.2284 48.696L77.8604 48.536L80.0524 43.08L81.1244 46.264L77.7324 53.544L72.9964 41.304ZM78.9004 41.304H81.2044L84.1004 48.456L83.6844 48.392L85.8444 41.304H88.3404L83.7964 53.512L78.9004 41.304Z" fill="#313131"/>
</svg>
