<svg width="64" height="61" viewBox="0 0 64 61" fill="none" xmlns="http://www.w3.org/2000/svg">
<path id="Vector" d="M63.1115 28.3057L57.2879 22.3038L58.4593 14.0358C58.6979 12.3523 57.554 10.7848 55.8748 10.4889L47.6257 9.04638L43.7015 1.67203C42.9063 0.174585 41.0558 -0.426221 39.5265 0.320974L32.0023 3.98681L24.4781 0.320974C22.9488 -0.426221 21.0983 0.174585 20.3 1.67508L16.3758 9.05248L8.12674 10.495C6.44756 10.7878 5.30364 12.3554 5.54221 14.0389L6.71366 22.3068L0.890057 28.3088C-0.296686 29.5317 -0.296686 31.4683 0.890057 32.6913L6.71366 38.6933L5.54221 46.9612C5.30364 48.6447 6.44756 50.2123 8.12674 50.5081L16.3758 51.9506L20.3 59.325C21.0983 60.8255 22.9488 61.4263 24.4812 60.6791L32.0023 57.0102L39.5265 60.6761C41.0589 61.4233 42.9063 60.8224 43.7076 59.322L47.6318 51.9476L55.8809 50.505C57.5601 50.2123 58.704 48.6416 58.4654 46.9582L57.294 38.6902L63.1176 32.6883C64.2952 31.4683 64.2951 29.5287 63.1115 28.3057ZM28.9437 43.9602L17.6054 32.6547L21.9303 28.3423L28.9437 35.3355L45.1329 19.193L49.4578 23.5054L28.9437 43.9602Z" fill="#179E76"/>
</svg>
