<svg width="60" height="67" viewBox="0 0 60 67" fill="none" xmlns="http://www.w3.org/2000/svg">
<g id="Apple">
<path id="Vector" d="M44.6462 0C40.7242 0.223332 36.2215 2.36446 33.5445 5.09111C31.1259 7.57109 29.2177 11.2543 29.9967 14.8176C34.2589 14.9276 38.537 12.731 41.0984 9.95435C43.4898 7.3577 45.3027 3.7333 44.6462 0ZM44.8787 14.8111C38.7252 14.8111 36.1524 18.5155 31.8902 18.5155C27.5055 18.5155 23.4972 15.0455 18.1907 15.0455C10.9724 15.0488 0 21.6009 0 37.0375C0 51.0807 12.9862 66.6662 20.3167 66.6662C24.7694 66.7095 25.8489 63.9227 31.8902 63.8927C37.9382 63.8494 39.2433 66.7028 43.7028 66.6662C48.7236 66.6295 52.6446 61.223 55.5088 56.9397C57.5634 53.873 58.408 52.3074 60 48.8408C48.1862 45.9075 45.8357 27.2387 60 23.3787C57.3263 18.9088 49.522 14.8111 44.8787 14.8111Z" fill="white"/>
</g>
</svg>
