<svg width="300" height="80" viewBox="0 0 300 80" fill="none" xmlns="http://www.w3.org/2000/svg">
<path d="M53.75 29.9999C49.2578 30.1822 11.1068 31.7447 0 32.1874C5.19531 33.8671 13.0599 35.7812 21.875 36.6666C30.6901 37.552 44.6094 37.3827 55.625 37.2916C66.6406 37.2004 70.9115 36.901 75.5208 37.6041C77.2135 37.8645 78.776 38.9583 80 40.6249C79.388 38.2421 77.1484 34.5963 75.2083 32.9166C73.2682 31.2369 70.6901 31.0546 68.75 30.5208C66.8099 29.9999 58.2422 29.8176 53.75 29.9999ZM69.375 40.5208C68.5286 40.9374 67.8385 41.2369 67.2917 41.4583C65.1823 42.3307 58.4245 44.6484 52.2917 46.6666C56.1589 47.6822 60.7812 48.9583 66.6667 50.1041C69.9609 48.8541 75.6641 46.3801 78.3333 44.0624L77.2917 42.6041C76.5755 41.6275 75.7422 41.0546 75 40.9374C73.2682 40.677 71.5234 40.5598 69.375 40.5208Z" fill="white"/>
<path d="M91.9531 50C91.4648 50 91.2207 49.7314 91.2207 49.1943V29.7998C91.2207 29.2627 91.4648 28.9941 91.9531 28.9941H97.666C100.986 28.9941 103.223 29.5312 104.375 30.6055C105.527 31.6797 106.104 32.9736 106.104 34.4873C106.104 35.6885 105.625 36.709 104.668 37.5488C103.711 38.3789 102.783 38.8672 101.885 39.0137V39.0576C102.871 39.1455 103.97 39.6387 105.181 40.5371C106.401 41.4258 107.012 42.6367 107.012 44.1699C107.012 45.8301 106.396 47.2168 105.166 48.3301C103.945 49.4434 101.689 50 98.3984 50H91.9531ZM94.0332 47.5977H97.9297C100.029 47.5977 101.567 47.3389 102.544 46.8213C103.521 46.3037 104.009 45.3906 104.009 44.082C104.009 42.8711 103.511 41.9336 102.515 41.2695C101.528 40.6055 100 40.2734 97.9297 40.2734H94.0332V47.5977ZM94.0332 38.1641H97.71C99.3408 38.1641 100.669 37.8174 101.694 37.124C102.729 36.4209 103.247 35.542 103.247 34.4873C103.247 33.4814 102.861 32.7148 102.09 32.1875C101.318 31.6602 99.8584 31.3965 97.71 31.3965H94.0332V38.1641ZM111.362 50C110.923 50 110.703 49.7803 110.703 49.3408V35.2783C110.703 34.8389 110.923 34.6191 111.362 34.6191H112.593C113.032 34.6191 113.252 34.8389 113.252 35.2783V37.0361H113.311C113.779 36.1572 114.331 35.4932 114.966 35.0439C115.601 34.5947 116.392 34.3701 117.339 34.3701C117.964 34.3701 118.403 34.4238 118.657 34.5312C118.882 34.6191 118.965 34.7656 118.906 34.9707L118.569 36.1719C118.521 36.3477 118.394 36.416 118.188 36.377C117.847 36.3086 117.524 36.2744 117.222 36.2744C116.079 36.2744 115.137 36.792 114.395 37.8271C113.652 38.8525 113.281 40.2539 113.281 42.0312V49.3408C113.281 49.7803 113.062 50 112.622 50H111.362ZM121.938 50C121.499 50 121.279 49.7803 121.279 49.3408V35.2783C121.279 34.8389 121.499 34.6191 121.938 34.6191H123.198C123.638 34.6191 123.857 34.8389 123.857 35.2783V49.3408C123.857 49.7803 123.638 50 123.198 50H121.938ZM121.938 31.8359C121.499 31.8359 121.279 31.6162 121.279 31.1768V29.917C121.279 29.4775 121.499 29.2578 121.938 29.2578H123.198C123.638 29.2578 123.857 29.4775 123.857 29.917V31.1768C123.857 31.6162 123.638 31.8359 123.198 31.8359H121.938ZM127.271 36.5527C126.831 36.5527 126.611 36.3818 126.611 36.04V35.1318C126.611 34.79 126.831 34.6191 127.271 34.6191H128.999V33.3008C128.999 33.1055 129.048 32.9199 129.146 32.7441L130.171 30.8838C130.356 30.542 130.508 30.3711 130.625 30.3711H131.138C131.431 30.3711 131.577 30.542 131.577 30.8838V34.6191H134.697C135.137 34.6191 135.356 34.79 135.356 35.1318V36.04C135.356 36.3818 135.137 36.5527 134.697 36.5527H131.577V45.8838C131.577 46.9092 131.729 47.5781 132.031 47.8906C132.344 48.1934 132.715 48.3447 133.145 48.3447C133.477 48.3447 133.872 48.2471 134.331 48.0518C134.8 47.8564 135.122 47.6904 135.298 47.5537C135.474 47.417 135.61 47.4609 135.708 47.6855L136.191 48.8135C136.27 49.0088 136.211 49.165 136.016 49.2822C135.635 49.5068 135.078 49.7266 134.346 49.9414C133.613 50.1465 132.881 50.249 132.148 50.249C131.133 50.249 130.352 49.8828 129.805 49.1504C129.268 48.418 128.999 47.3828 128.999 46.0449V36.5527H127.271ZM139.78 50C139.341 50 139.121 49.7803 139.121 49.3408V35.2783C139.121 34.8389 139.341 34.6191 139.78 34.6191H141.04C141.479 34.6191 141.699 34.8389 141.699 35.2783V49.3408C141.699 49.7803 141.479 50 141.04 50H139.78ZM139.78 31.8359C139.341 31.8359 139.121 31.6162 139.121 31.1768V29.917C139.121 29.4775 139.341 29.2578 139.78 29.2578H141.04C141.479 29.2578 141.699 29.4775 141.699 29.917V31.1768C141.699 31.6162 141.479 31.8359 141.04 31.8359H139.78ZM145.259 48.5645C144.956 48.2812 144.893 48.0176 145.068 47.7734L145.728 46.8506C145.942 46.5576 146.26 46.5723 146.68 46.8945C147.256 47.334 147.896 47.6855 148.599 47.9492C149.312 48.2129 150.122 48.3447 151.03 48.3447C151.567 48.3447 152.046 48.2812 152.466 48.1543C152.886 48.0176 153.252 47.7686 153.564 47.4072C153.887 47.0459 154.048 46.5625 154.048 45.957C154.048 45.6055 153.97 45.2734 153.813 44.9609C153.667 44.6484 153.433 44.3994 153.11 44.2139C152.798 44.0186 152.49 43.8672 152.188 43.7598C151.689 43.5742 151.191 43.4229 150.693 43.3057C150.205 43.1787 149.561 42.9883 148.76 42.7344C148.223 42.5684 147.715 42.334 147.236 42.0312C146.758 41.7188 146.338 41.2988 145.977 40.7715C145.625 40.2441 145.449 39.5166 145.449 38.5889C145.449 37.6416 145.737 36.8262 146.313 36.1426C146.89 35.459 147.612 34.9951 148.481 34.751C149.351 34.4971 150.195 34.3701 151.016 34.3701C152.227 34.3701 153.198 34.5117 153.931 34.7949C154.673 35.0684 155.312 35.3955 155.85 35.7764C156.162 36.001 156.206 36.2598 155.981 36.5527L155.322 37.4316C155.117 37.7148 154.8 37.7051 154.37 37.4023C154.009 37.1484 153.496 36.9092 152.832 36.6846C152.168 36.46 151.587 36.3477 151.089 36.3477C150.474 36.3477 149.946 36.416 149.507 36.5527C149.067 36.6895 148.711 36.9238 148.438 37.2559C148.164 37.5879 148.027 37.9785 148.027 38.4277C148.027 38.7695 148.081 39.0771 148.188 39.3506C148.296 39.6143 148.496 39.8584 148.789 40.083C149.082 40.3076 149.492 40.4883 150.02 40.625C150.84 40.8398 151.587 41.0352 152.261 41.2109C152.944 41.3867 153.56 41.6016 154.106 41.8555C154.819 42.1875 155.366 42.5537 155.747 42.9541C156.138 43.3545 156.406 43.7891 156.553 44.2578C156.699 44.7168 156.772 45.2295 156.772 45.7959C156.772 46.8408 156.46 47.7246 155.835 48.4473C155.22 49.1699 154.531 49.6533 153.77 49.8975C153.008 50.1318 152.09 50.249 151.016 50.249C149.561 50.249 148.311 50.0439 147.266 49.6338C146.23 49.2139 145.562 48.8574 145.259 48.5645ZM160.347 50C159.907 50 159.688 49.7803 159.688 49.3408V29.0381C159.688 28.5986 159.907 28.3789 160.347 28.3789H161.606C162.046 28.3789 162.266 28.5986 162.266 29.0381V35.5713C162.266 35.8643 162.256 36.1572 162.236 36.4502H162.295C162.93 35.7471 163.613 35.2246 164.346 34.8828C165.078 34.541 165.991 34.3701 167.085 34.3701C168.862 34.3701 170.137 34.873 170.908 35.8789C171.689 36.875 172.08 38.2422 172.08 39.9805V49.3408C172.08 49.7803 171.86 50 171.421 50H170.161C169.722 50 169.502 49.7803 169.502 49.3408V40.6836C169.502 38.7695 169.185 37.5586 168.55 37.0508C167.915 36.5332 167.109 36.2744 166.133 36.2744C164.863 36.2744 163.901 36.6553 163.247 37.417C162.593 38.1689 162.266 39.4629 162.266 41.2988V49.3408C162.266 49.7803 162.046 50 161.606 50H160.347ZM185.557 50C185.049 50 184.917 49.6777 185.161 49.0332L192.456 29.8877C192.681 29.292 193.003 28.9941 193.423 28.9941H195.474C195.894 28.9941 196.216 29.292 196.44 29.8877L203.735 49.0332C203.979 49.6777 203.848 50 203.34 50H201.846C201.328 50 200.977 49.7607 200.791 49.2822L198.96 44.4336H189.937L188.105 49.2822C187.92 49.7607 187.568 50 187.051 50H185.557ZM190.859 42.0312H198.037L195.796 36.1719C195.591 35.625 195.386 35.0195 195.181 34.3555C194.985 33.6914 194.751 32.749 194.478 31.5283H194.419C194.146 32.749 193.906 33.6914 193.701 34.3555C193.506 35.0195 193.306 35.625 193.101 36.1719L190.859 42.0312ZM206.782 50C206.343 50 206.123 49.7803 206.123 49.3408V35.2783C206.123 34.8389 206.343 34.6191 206.782 34.6191H208.042C208.481 34.6191 208.701 34.8389 208.701 35.2783V49.3408C208.701 49.7803 208.481 50 208.042 50H206.782ZM206.782 31.8359C206.343 31.8359 206.123 31.6162 206.123 31.1768V29.917C206.123 29.4775 206.343 29.2578 206.782 29.2578H208.042C208.481 29.2578 208.701 29.4775 208.701 29.917V31.1768C208.701 31.6162 208.481 31.8359 208.042 31.8359H206.782ZM213.521 50C213.081 50 212.861 49.7803 212.861 49.3408V35.2783C212.861 34.8389 213.081 34.6191 213.521 34.6191H214.751C215.19 34.6191 215.41 34.8389 215.41 35.2783V37.0361H215.469C215.938 36.1572 216.489 35.4932 217.124 35.0439C217.759 34.5947 218.55 34.3701 219.497 34.3701C220.122 34.3701 220.562 34.4238 220.815 34.5312C221.04 34.6191 221.123 34.7656 221.064 34.9707L220.728 36.1719C220.679 36.3477 220.552 36.416 220.347 36.377C220.005 36.3086 219.683 36.2744 219.38 36.2744C218.237 36.2744 217.295 36.792 216.553 37.8271C215.811 38.8525 215.439 40.2539 215.439 42.0312V49.3408C215.439 49.7803 215.22 50 214.78 50H213.521ZM224.097 50C223.657 50 223.438 49.7803 223.438 49.3408V31.0596C223.438 30.8643 223.486 30.6787 223.584 30.5029L224.609 28.6426C224.795 28.3008 224.946 28.1299 225.063 28.1299H225.576C225.869 28.1299 226.016 28.3008 226.016 28.6426V49.3408C226.016 49.7803 225.796 50 225.356 50H224.097ZM230.835 50C230.396 50 230.176 49.7803 230.176 49.3408V35.2783C230.176 34.8389 230.396 34.6191 230.835 34.6191H232.095C232.534 34.6191 232.754 34.8389 232.754 35.2783V49.3408C232.754 49.7803 232.534 50 232.095 50H230.835ZM230.835 31.8359C230.396 31.8359 230.176 31.6162 230.176 31.1768V29.917C230.176 29.4775 230.396 29.2578 230.835 29.2578H232.095C232.534 29.2578 232.754 29.4775 232.754 29.917V31.1768C232.754 31.6162 232.534 31.8359 232.095 31.8359H230.835ZM237.573 50C237.134 50 236.914 49.7803 236.914 49.3408V35.2783C236.914 34.8389 237.134 34.6191 237.573 34.6191H238.804C239.243 34.6191 239.463 34.8389 239.463 35.2783V36.4502H239.521C240.156 35.7471 240.84 35.2246 241.572 34.8828C242.305 34.541 243.218 34.3701 244.312 34.3701C246.089 34.3701 247.363 34.873 248.135 35.8789C248.916 36.875 249.307 38.2422 249.307 39.9805V49.3408C249.307 49.7803 249.087 50 248.647 50H247.388C246.948 50 246.729 49.7803 246.729 49.3408V40.6836C246.729 38.7695 246.411 37.5586 245.776 37.0508C245.142 36.5332 244.336 36.2744 243.359 36.2744C242.09 36.2744 241.128 36.6553 240.474 37.417C239.819 38.1689 239.492 39.4629 239.492 41.2988V49.3408C239.492 49.7803 239.272 50 238.833 50H237.573ZM252.603 42.3096C252.603 39.8877 253.208 37.959 254.419 36.5234C255.63 35.0879 257.363 34.3701 259.619 34.3701C261.494 34.3701 263.047 35.0293 264.277 36.3477C265.518 37.6562 266.138 39.751 266.138 42.6318C266.138 43.0713 265.938 43.291 265.537 43.291H255.327C255.493 45.1758 256.001 46.4893 256.851 47.2314C257.7 47.9639 258.662 48.3301 259.736 48.3301C260.869 48.3301 261.738 48.1396 262.344 47.7588C262.949 47.3779 263.394 47.002 263.677 46.6309C263.989 46.2207 264.292 46.1426 264.585 46.3965L265.449 47.1436C265.674 47.3389 265.674 47.6074 265.449 47.9492C265.264 48.2324 264.731 48.6865 263.853 49.3115C262.983 49.9365 261.611 50.249 259.736 50.249C257.295 50.249 255.493 49.5312 254.331 48.0957C253.179 46.6602 252.603 44.7314 252.603 42.3096ZM255.269 41.3867H263.545C263.506 40.0195 263.154 38.8232 262.49 37.7979C261.826 36.7627 260.85 36.2451 259.561 36.2451C258.428 36.2451 257.466 36.626 256.675 37.3877C255.884 38.1396 255.415 39.4727 255.269 41.3867ZM268.921 48.5645C268.618 48.2812 268.555 48.0176 268.73 47.7734L269.39 46.8506C269.604 46.5576 269.922 46.5723 270.342 46.8945C270.918 47.334 271.558 47.6855 272.261 47.9492C272.974 48.2129 273.784 48.3447 274.692 48.3447C275.229 48.3447 275.708 48.2812 276.128 48.1543C276.548 48.0176 276.914 47.7686 277.227 47.4072C277.549 47.0459 277.71 46.5625 277.71 45.957C277.71 45.6055 277.632 45.2734 277.476 44.9609C277.329 44.6484 277.095 44.3994 276.772 44.2139C276.46 44.0186 276.152 43.8672 275.85 43.7598C275.352 43.5742 274.854 43.4229 274.355 43.3057C273.867 43.1787 273.223 42.9883 272.422 42.7344C271.885 42.5684 271.377 42.334 270.898 42.0312C270.42 41.7188 270 41.2988 269.639 40.7715C269.287 40.2441 269.111 39.5166 269.111 38.5889C269.111 37.6416 269.399 36.8262 269.976 36.1426C270.552 35.459 271.274 34.9951 272.144 34.751C273.013 34.4971 273.857 34.3701 274.678 34.3701C275.889 34.3701 276.86 34.5117 277.593 34.7949C278.335 35.0684 278.975 35.3955 279.512 35.7764C279.824 36.001 279.868 36.2598 279.644 36.5527L278.984 37.4316C278.779 37.7148 278.462 37.7051 278.032 37.4023C277.671 37.1484 277.158 36.9092 276.494 36.6846C275.83 36.46 275.249 36.3477 274.751 36.3477C274.136 36.3477 273.608 36.416 273.169 36.5527C272.729 36.6895 272.373 36.9238 272.1 37.2559C271.826 37.5879 271.689 37.9785 271.689 38.4277C271.689 38.7695 271.743 39.0771 271.851 39.3506C271.958 39.6143 272.158 39.8584 272.451 40.083C272.744 40.3076 273.154 40.4883 273.682 40.625C274.502 40.8398 275.249 41.0352 275.923 41.2109C276.606 41.3867 277.222 41.6016 277.769 41.8555C278.481 42.1875 279.028 42.5537 279.409 42.9541C279.8 43.3545 280.068 43.7891 280.215 44.2578C280.361 44.7168 280.435 45.2295 280.435 45.7959C280.435 46.8408 280.122 47.7246 279.497 48.4473C278.882 49.1699 278.193 49.6533 277.432 49.8975C276.67 50.1318 275.752 50.249 274.678 50.249C273.223 50.249 271.973 50.0439 270.928 49.6338C269.893 49.2139 269.224 48.8574 268.921 48.5645Z" fill="white"/>
</svg>
