<svg width="70" height="70" viewBox="0 0 70 70" fill="none" xmlns="http://www.w3.org/2000/svg">
<g id="Hulu">
<path id="Vector" d="M0 23.4243V46.5754H5.5599V37.1873C5.59408 36.8 5.7194 36.4468 6.01562 36.1847C6.31185 35.9227 6.65365 35.729 7.10938 35.729H10.2995C10.6869 35.729 11.0059 35.9227 11.3021 36.1847C11.5983 36.4468 11.7236 36.8 11.7578 37.1873V46.5754H17.3177V36.4582C17.3177 35.0682 17.0443 33.9631 16.4974 33.0858C15.9163 32.2427 15.153 31.6502 14.2188 31.2629C13.2503 30.8413 12.1908 30.5907 11.0286 30.6248H7.38281L6.01562 30.8071C5.69661 30.8983 5.5599 30.9894 5.5599 30.9894V23.4243H0ZM42.8385 23.4243V46.5754H48.3984V23.4243H42.8385ZM21.3281 30.6248V40.4686C21.3281 41.7674 21.5332 42.8384 22.0573 43.7498C22.5814 44.6613 23.3903 45.3905 24.3359 45.8462C25.3044 46.3019 26.3184 46.5754 27.6172 46.5754H33.0859V46.4842C34.2481 46.4842 35.2848 46.245 36.0938 45.755C36.9027 45.231 37.5521 44.479 38.0078 43.5675C38.4294 42.6561 38.6117 41.6307 38.6458 40.4686V30.6248H33.0859V39.9217C33.0518 40.3433 32.8923 40.7192 32.6302 41.0155C32.334 41.2775 32.0492 41.437 31.6276 41.4712H28.3464C27.9248 41.437 27.6058 41.2775 27.3438 41.0155C27.0475 40.7192 26.9222 40.3433 26.888 39.9217V30.6248H21.3281ZM52.6823 30.6248V40.4686C52.7165 41.7674 52.9557 42.8384 53.5026 43.7498C54.0495 44.6613 54.7559 45.3905 55.6901 45.8462C56.6585 46.3019 57.7067 46.5754 58.9714 46.5754H64.4401V46.4842C65.6022 46.4842 66.6048 46.245 67.4479 45.755C68.2568 45.231 68.9404 44.479 69.362 43.5675C69.8063 42.6675 70 41.6307 70 40.4686V30.6248H64.4401V39.9217C64.4401 40.3433 64.2464 40.7192 63.9844 41.0155C63.7223 41.2775 63.4033 41.437 62.9818 41.4712H59.7005C59.2448 41.437 58.96 41.2775 58.6979 41.0155C58.4359 40.7192 58.2422 40.3433 58.2422 39.9217V30.6248H52.6823Z" fill="white"/>
</g>
</svg>
