<svg width="95" height="95" viewBox="0 0 95 95" fill="none" xmlns="http://www.w3.org/2000/svg">
<g id="Man Logo">
<path id="Vector" d="M47.5 19.7915C20.4419 19.7915 0 42.4739 0 71.2498H7.91667C7.91667 46.1291 24.8018 27.7082 47.5 27.7082C70.1982 27.7082 87.0833 46.1291 87.0833 71.2498H95C95 42.4739 74.5581 19.7915 47.5 19.7915ZM13.8542 55.4165V71.2498H20.6807V65.3123L24.0979 69.2707L27.5073 65.3123V71.2498H34.3339V55.4165H27.5073L24.0979 61.354L20.6807 55.4165H13.8542ZM44.5776 55.4165L37.2563 71.2498H43.1087L44.106 69.2707H50.9094L51.8913 71.2498H57.7437L50.4224 55.4165H44.5776ZM60.6661 55.4165V71.2498H67.4927V65.3123L74.3193 71.2498H81.1458V55.4165H74.3193V61.354L67.4927 55.4165H60.6661ZM47.5 61.8797L49.0849 65.3123H45.9151L47.5 61.8797Z" fill="white"/>
</g>
</svg>
