<svg width="200" height="48" viewBox="0 0 200 48" fill="none" xmlns="http://www.w3.org/2000/svg">
<path d="M20.999 4C14.831 4 9.99901 11.1646 9.99901 20.3086C9.99901 24.4486 11.0032 28.1638 12.6592 31.0078C12.5652 31.3258 12.499 31.652 12.499 32C12.499 33.932 14.067 35.5 15.999 35.5C17.931 35.5 19.499 33.932 19.499 32C19.499 30.068 17.931 28.5 15.999 28.5C15.951 28.5 15.9064 28.5136 15.8584 28.5156C14.7184 26.3196 13.999 23.4386 13.999 20.3086C13.999 13.6366 17.205 8 20.999 8C23.571 8 25.8689 10.5938 27.0849 14.3398C28.5709 14.5778 30.0523 14.9842 31.5264 15.4922C30.1703 8.77019 26.031 4 20.999 4ZM20.749 17C18.817 17 17.249 18.568 17.249 20.5C17.249 22.432 18.817 24 20.749 24C22.123 24 23.3 23.2028 23.874 22.0508C26.46 22.1668 29.3377 22.9167 32.0537 24.3867C35.9737 26.5107 38.9306 29.7704 39.7646 32.8984C40.1946 34.5044 40.0413 35.9158 39.3193 37.0898C37.8833 39.4258 34.4521 40.3612 30.5381 39.8672C29.3801 41.0492 28.058 42.1352 26.624 43.1172C28.624 43.7012 30.6057 44.0039 32.4717 44.0039C36.9397 44.0039 40.7656 42.3735 42.7256 39.1875C44.0296 37.0675 44.3419 34.5372 43.6279 31.8672C42.4999 27.6532 38.882 23.5391 33.956 20.8711C30.358 18.9211 26.6136 18.0133 23.2256 18.0273C22.5916 17.3913 21.717 17 20.749 17ZM6.19432 23.4844C3.27432 25.9024 1.18001 28.8532 0.374006 31.8672C-0.339994 34.5372 -0.0276504 37.0676 1.27635 39.1836C3.23235 42.3696 7.06026 44 11.5303 44C14.9143 44 18.665 43.0729 22.249 41.1289C25.669 39.2769 28.4323 36.7237 30.1943 33.9297C31.7923 33.6057 32.999 32.194 32.999 30.5C32.999 28.568 31.431 27 29.499 27C27.567 27 25.999 28.568 25.999 30.5C25.999 31.152 26.1909 31.7572 26.5029 32.2812C25.0889 34.3113 22.9367 36.2113 20.3467 37.6133C14.1087 40.9913 6.93069 40.7499 4.67869 37.0859C3.95669 35.9119 3.80729 34.5044 4.23729 32.8984C4.67329 31.2684 5.6941 29.6021 7.1201 28.0781C6.6841 26.6281 6.37432 25.0904 6.19432 23.4844Z" fill="white"/>
<path d="M59.296 36V35.244C60.592 35.244 61.348 35.004 61.564 34.524V16.416C61.348 15.936 60.592 15.696 59.296 15.696V14.94H68.152C71.128 14.94 73.384 15.48 74.92 16.56C76.456 17.64 77.224 18.876 77.224 20.268C77.224 21.588 76.828 22.752 76.036 23.76C75.244 24.744 74.068 25.464 72.508 25.92L77.296 34.488C77.536 34.992 78.328 35.244 79.672 35.244V36H78.124C76.228 36 74.824 35.892 73.912 35.676C73.024 35.46 72.352 34.944 71.896 34.128L67.54 26.424H66.136V34.524C66.352 35.004 67.108 35.244 68.404 35.244V36H59.296ZM66.136 16.164V25.2H67.324C68.956 25.2 70.204 24.84 71.068 24.12C71.932 23.376 72.364 22.104 72.364 20.304C72.364 18.912 71.872 17.88 70.888 17.208C69.928 16.512 68.596 16.164 66.892 16.164H66.136ZM84.6788 27.324C84.7268 29.412 85.1948 31.212 86.0828 32.724C86.9948 34.236 88.1468 34.992 89.5388 34.992C91.6268 34.992 93.3068 34.2 94.5788 32.616L95.4428 33.048C94.7468 34.2 93.8348 35.04 92.7068 35.568C91.6028 36.096 90.1388 36.36 88.3148 36.36C87.3788 36.36 86.4668 36.228 85.5788 35.964C84.6908 35.676 83.8028 35.22 82.9148 34.596C82.0508 33.948 81.3428 33 80.7908 31.752C80.2628 30.504 79.9988 29.016 79.9988 27.288C79.9988 25.2 80.7308 23.436 82.1948 21.996C83.6828 20.532 85.6028 19.8 87.9548 19.8C90.5228 19.8 92.5148 20.532 93.9308 21.996C95.3468 23.436 96.0548 25.212 96.0548 27.324H84.6788ZM84.7148 26.208H91.2668C91.1228 24.504 90.8228 23.196 90.3668 22.284C89.9348 21.348 89.2268 20.88 88.2428 20.88C87.3788 20.88 86.5988 21.324 85.9028 22.212C85.2308 23.076 84.8348 24.408 84.7148 26.208ZM110.418 20.52V15.84C109.122 15.744 108.366 15.696 108.15 15.696V14.868C108.606 14.868 109.71 14.616 111.462 14.112C113.214 13.584 114.366 13.32 114.918 13.32V33.84C116.214 33.936 116.97 33.984 117.186 33.984V34.812C116.73 34.812 115.626 35.076 113.874 35.604C112.122 36.108 110.97 36.36 110.418 36.36V35.172C109.266 35.964 107.826 36.36 106.098 36.36C105.474 36.36 104.826 36.276 104.154 36.108C103.506 35.964 102.798 35.7 102.03 35.316C101.286 34.908 100.626 34.404 100.05 33.804C99.474 33.18 98.994 32.376 98.61 31.392C98.226 30.384 98.034 29.256 98.034 28.008C98.034 25.368 98.886 23.316 100.59 21.852C102.294 20.388 104.394 19.656 106.89 19.656C108.258 19.656 109.434 19.944 110.418 20.52ZM110.418 21.672C109.506 21.144 108.402 20.88 107.106 20.88C106.05 20.88 105.054 21.528 104.118 22.824C103.182 24.12 102.714 25.848 102.714 28.008C102.714 30 103.11 31.692 103.902 33.084C104.694 34.452 105.546 35.136 106.458 35.136C108.114 35.136 109.434 34.752 110.418 33.984V21.672ZM135.443 33.84C136.739 33.936 137.495 33.984 137.711 33.984V34.812C137.255 34.812 136.151 35.076 134.399 35.604C132.647 36.108 131.495 36.36 130.943 36.36V35.316C129.719 36.012 128.495 36.36 127.271 36.36C122.639 36.36 120.323 34.656 120.323 31.248V21.636C120.107 21.156 119.351 20.916 118.055 20.916V20.16H124.823V31.5C124.823 32.004 124.823 32.4 124.823 32.688C124.847 32.952 124.907 33.264 125.003 33.624C125.099 33.984 125.231 34.26 125.399 34.452C125.591 34.644 125.855 34.812 126.191 34.956C126.551 35.076 126.983 35.136 127.487 35.136C128.663 35.136 129.815 34.812 130.943 34.164V21.636C130.727 21.156 129.971 20.916 128.675 20.916V20.16H135.443V33.84ZM154.823 20.16V20.916C153.527 20.916 152.723 21.144 152.411 21.6L148.739 26.46L153.887 34.74C154.103 35.076 154.811 35.244 156.011 35.244V36H147.767V35.244C148.367 35.244 148.823 35.208 149.135 35.136L146.003 30.096L142.331 35.028C142.667 35.172 143.243 35.244 144.059 35.244V36H138.263V35.244C139.559 35.244 140.375 35.004 140.711 34.524L145.103 28.656L140.603 21.42C140.387 21.084 139.691 20.916 138.515 20.916V20.16H146.759V20.916C146.183 20.916 145.715 20.952 145.355 21.024L147.839 25.02L150.755 21.132C150.419 20.988 149.843 20.916 149.027 20.916V20.16H154.823Z" fill="white"/>
</svg>
