<svg width="68" height="68" viewBox="0 0 68 68" fill="none" xmlns="http://www.w3.org/2000/svg">
<g id="Snapchat">
<path id="Vector" d="M34 5.6665C17 5.6665 17 22.6665 17 22.6665V25.4998C17 25.4998 16.9348 25.497 16.8215 25.497C15.8582 25.497 11.3333 25.6953 11.3333 29.4523C11.3333 33.8298 16.1415 33.9998 16.9008 33.9998C16.966 33.9998 17 33.9998 17 33.9998C17 36.8332 12.3193 40.151 9.248 40.9188C6.38633 42.0295 5.70349 43.925 5.66666 45.3615C5.64399 46.22 5.85366 46.9142 5.96699 47.1833C7.03516 49.6908 10.2085 50.9857 13.3167 50.9857C13.4243 55.0628 16.3653 56.6665 18.3345 56.6665C20.5842 56.6665 22.9642 55.5672 22.9642 55.5672C23.0803 55.6635 26.7042 59.4998 34 59.4998C41.2958 59.4998 44.9197 55.6635 45.0387 55.5672C45.0387 55.5672 47.4158 56.6665 49.6683 56.6665C51.6375 56.6665 54.5757 55.0628 54.6833 50.9857C57.7915 50.9857 60.9648 49.6908 62.033 47.1833C62.1463 46.9142 62.356 46.22 62.3333 45.3615C62.2965 43.925 61.6137 42.0295 58.752 40.9188C55.6807 40.151 51 36.8332 51 33.9998C51 33.9998 51.034 33.9998 51.0992 33.9998C51.8585 33.9998 56.6667 33.8298 56.6667 29.4523C56.6667 25.6953 52.1418 25.497 51.1785 25.497C51.0652 25.497 51 25.4998 51 25.4998V22.6665C51 22.6665 51 5.6665 34 5.6665Z" fill="white"/>
</g>
</svg>
